<?xml version="1.0" encoding="UTF-8"?>
<svg id="Capa_1" xmlns="http://www.w3.org/2000/svg" xmlns:xlink="http://www.w3.org/1999/xlink" version="1.1" viewBox="0 0 464 126">
  <!-- Generator: Adobe Illustrator 29.1.0, SVG Export Plug-In . SVG Version: 2.1.0 Build 142)  -->
  <defs>
    <style>
      .st0, .st1 {
        fill: none;
      }

      .st1 {
        stroke: #717070;
      }

      .st2 {
        clip-path: url(#clippath-1);
      }

      .st3 {
        fill: #8dc044;
      }

      .st4 {
        fill: #585857;
      }

      .st5 {
        clip-path: url(#clippath);
      }

      .st6 {
        fill: #7dba28;
      }
    </style>
    <clipPath id="clippath">
      <rect class="st0" x="175.2" y="20.3" width="113.7" height="85.3"/>
    </clipPath>
    <clipPath id="clippath-1">
      <path class="st0" d="M179,34.6l-3.8,14.2h16.2l-15.1,56.9h15l15.1-56.9h16v.2h.2l7.5,21.9,19.2-22.1h15.4c.2-1.2.3-2.3.4-3.4.2-2.5,0-5-.5-7.4-.3-1.2-.6-2.3-1.1-3.4h-84.2Z"/>
    </clipPath>
  </defs>
  <g id="Grupo_174">
    <g id="Grupo_173">
      <path id="Trazado_86" class="st4" d="M223.9,95.3l-8.3-22-8.7,32.4h29l8.7-32.5-20.6,22.2Z"/>
      <g id="Grupo_170">
        <g class="st5">
          <g id="Grupo_169">
            <path id="Trazado_87" class="st4" d="M222.9,32.3c.5-.3,1-.7,1.5-1,2.5-1.7,5-3.3,7.7-4.7,2.7-1.5,5.4-2.8,8.3-3.8,2.9-1.1,6-1.9,9.1-2.2,1.6-.2,3.3-.2,4.9,0,1.7.2,3.3.6,4.9,1.2,1.6.6,3,1.5,4.4,2.5,1.3,1,2.4,2.3,3.4,3.6,1.9,2.6,3.1,5.7,3.6,8.8.5,3,.6,6.2.2,9.2-.8,5.9-2.4,11.7-4.8,17.2-2.3,5.4-5.1,10.6-8.2,15.6-3.1,5-6.5,9.7-10.1,14.3-3.7,4.5-7.6,8.7-11.7,12.8,4-4.2,7.6-8.6,11.1-13.3,3.4-4.7,6.5-9.6,9.3-14.7,2.8-5,5.3-10.3,7.3-15.7,2-5.3,3.3-10.9,3.8-16.5.2-2.7,0-5.5-.6-8.2-.6-2.6-1.7-5-3.3-7-1.5-2-3.6-3.5-6-4.3-1.2-.4-2.4-.6-3.6-.7-1.3,0-2.6,0-3.8.2-2.7.4-5.2,1.2-7.7,2.3-2.5,1.1-5,2.4-7.4,3.8-.3.2-.6.4-.9.6h-11.2Z"/>
            <path id="Trazado_88" class="st3" d="M288.8,43.7c0-2-.4-4-.9-6-.6-2-1.4-4-2.5-5.7-1.2-1.8-2.6-3.4-4.3-4.8-1.7-1.4-3.7-2.4-5.8-3.1-2.1-.7-4.2-1-6.4-1-.5,0-1,0-1.4,0,.8.8,1.6,1.7,2.3,2.7.8,1.1,1.5,2.4,2.1,3.6.6,0,1.3.1,1.9.3,1.5.3,2.9.9,4.2,1.8,1.3.9,2.5,2,3.4,3.3,1,1.3,1.8,2.8,2.3,4.3.6,1.6.9,3.3,1.1,5,.3,3.5.2,7.1-.5,10.6-.6,3.6-1.6,7.1-2.8,10.6-1.2,3.5-2.6,6.9-4.2,10.2-3.2,6.7-6.9,13.2-11.2,19.3,4.7-5.9,8.9-12.1,12.6-18.6,1.9-3.3,3.6-6.7,5-10.1,1.5-3.5,2.8-7.1,3.7-10.8,1-3.8,1.4-7.7,1.3-11.6"/>
          </g>
        </g>
      </g>
      <g id="Grupo_172">
        <g class="st2">
          <g id="Grupo_171">
            <rect id="Rectángulo_85" class="st6" x="175.2" y="34.6" width="89.9" height="71.1"/>
          </g>
        </g>
      </g>
    </g>
    <path id="Trazado_90" class="st1" d="M143.7,63H18.8"/>
    <path id="Trazado_91" class="st1" d="M445.2,63h-125"/>
  </g>
</svg>